<svg width="50" height="50" viewBox="0 0 50 50" xmlns="http://www.w3.org/2000/svg" xmlns:xlink="http://www.w3.org/1999/xlink" id="Layer_1" overflow="hidden"><path d="M25 48.5C12.0213 48.5 1.5 37.9787 1.5 25 1.5 12.0213 12.0213 1.5 25 1.5 37.9787 1.5 48.5 12.0213 48.5 25 48.489 37.9741 37.9741 48.489 25 48.5ZM25 3.5C13.1259 3.5 3.5 13.1259 3.5 25 3.5 36.8741 13.1259 46.5 25 46.5 36.8741 46.5 46.5 36.8741 46.5 25 46.489 13.1304 36.8696 3.51103 25 3.5Z" fill="#693CC5"/><path d="M28.9 12.46 25 7.92 21.1 12.46 19.59 11.16 24.24 5.73C24.5989 5.31026 25.2302 5.26098 25.6499 5.61992 25.6894 5.6537 25.7262 5.6905 25.76 5.73L30.41 11.16Z" fill="#693CC5"/><rect x="24" y="7.12" width="2" height="35.75" fill="#693CC5"/><path d="M25 44.62 25 44.62C24.7342 44.6215 24.4787 44.5172 24.29 44.33L19.64 39.67 21.05 38.26 25 42.26 28.95 38.26 30.36 39.67 25.71 44.33C25.5213 44.5172 25.2658 44.6215 25 44.62Z" fill="#693CC5"/><path d="M18 30.36 16.53 29 20.48 25 16.53 21.05 18 19.64 22.65 24.29C23.0421 24.6789 23.0447 25.3121 22.6558 25.7042 22.6539 25.7061 22.6519 25.7081 22.65 25.71Z" fill="#693CC5"/><path d="M32.05 30.36 27.4 25.71C27.0079 25.3211 27.0053 24.6879 27.3942 24.2958 27.3961 24.2939 27.3981 24.2919 27.4 24.29L32.05 19.64 33.47 21.05 29.52 25 33.47 29Z" fill="#693CC5"/><rect x="28.1" y="24" width="17.07" height="2" fill="#693CC5"/><rect x="4.83" y="24" width="17.07" height="2" fill="#693CC5"/><path d="M212 64 61 64 55.55 131.5-83 131.5-90-494 212-494 212 64Z" stroke="#A166FF" stroke-width="3" stroke-miterlimit="10" fill="none"/></svg>