<svg width="35" height="35" viewBox="0 0 35 35" xmlns="http://www.w3.org/2000/svg" xmlns:xlink="http://www.w3.org/1999/xlink" id="Layer_1" overflow="hidden"><rect x="0" y="0" width="35" height="35" fill="#232F3E"/><path d="M25.54 25.76 9.92 25.76C7.34929 25.7938 5.19511 23.8235 5 21.26 5 21.13 5 21 5 20.87 4.89619 18.7653 6.24806 16.8636 8.27 16.27 8.27 16.13 8.27 15.99 8.27 15.86 8.34349 13.2874 9.84875 10.9716 12.17 9.86 14.6944 8.73672 17.6524 9.32111 19.56 11.32 20.1962 11.968 20.708 12.7272 21.07 13.56 21.8073 12.9486 22.7983 12.7391 23.72 13 25.0842 13.4797 26.0163 14.7449 26.07 16.19 28.3623 16.5832 30.0286 18.5844 30 20.91 30 25.34 25.59 25.75 25.54 25.76ZM8.87 17.09C7.11291 17.4712 5.8951 19.0751 6 20.87 6 20.98 6 21.09 6 21.2 6.17415 23.2647 7.92871 24.835 10 24.78L25.59 24.78C27.7411 24.591 29.3318 22.694 29.1428 20.5428 28.9769 18.6537 27.4792 17.156 25.59 16.99 25.3337 16.9492 25.1589 16.7083 25.1997 16.452 25.1998 16.4513 25.1999 16.4507 25.2 16.45 25.2388 15.3168 24.5629 14.2809 23.51 13.86 22.6945 13.6349 21.8256 13.9472 21.34 14.64 21.234 14.7841 21.0568 14.8573 20.88 14.83 20.7056 14.7983 20.561 14.6765 20.5 14.51 20.151 13.5621 19.594 12.7044 18.87 12 17.2416 10.2785 14.7035 9.77333 12.54 10.74 10.568 11.723 9.2934 13.7078 9.22 15.91 9.20508 16.1431 9.20508 16.3769 9.22 16.61 9.25122 16.8588 9.08566 17.0897 8.84 17.14Z" fill="#FFFFFF"/></svg>