<svg width="35" height="35" viewBox="0 0 35 35" xmlns="http://www.w3.org/2000/svg" xmlns:xlink="http://www.w3.org/1999/xlink" id="Layer_1" overflow="hidden"><rect x="0" y="0" width="35" height="35" fill="#5A6C86"/><path d="M25.31 13.25 21.65 13.25 21.65 5.5C21.65 5.22386 21.4261 5 21.15 5L13.85 5C13.5739 5 13.35 5.22386 13.35 5.5L13.35 13.25 9.69 13.25C9.41386 13.25 9.19 13.4739 9.19 13.75L9.19 29.5C9.19 29.7761 9.41386 30 9.69 30L25.31 30C25.5861 30 25.81 29.7761 25.81 29.5L25.81 13.75C25.81 13.4739 25.5861 13.25 25.31 13.25ZM24.81 29 10.19 29 10.19 14.25 13.85 14.25C14.1261 14.25 14.35 14.0261 14.35 13.75L14.35 6 20.65 6 20.65 13.75C20.65 14.0261 20.8739 14.25 21.15 14.25L24.81 14.25Z" fill="#FFFFFF"/><rect x="12.38" y="16.31" width="1" height="2.6" fill="#FFFFFF"/><rect x="12.38" y="20.48" width="1" height="2.6" fill="#FFFFFF"/><rect x="12.38" y="24.65" width="1" height="2.6" fill="#FFFFFF"/><rect x="17.07" y="16.31" width="1" height="2.6" fill="#FFFFFF"/><rect x="17.07" y="20.48" width="1" height="2.6" fill="#FFFFFF"/><rect x="17.07" y="24.65" width="1" height="2.6" fill="#FFFFFF"/><rect x="21.76" y="16.31" width="1" height="2.6" fill="#FFFFFF"/><rect x="21.76" y="20.48" width="1" height="2.6" fill="#FFFFFF"/><rect x="21.76" y="24.65" width="1" height="2.6" fill="#FFFFFF"/><rect x="17.07" y="8.31" width="1" height="2.6" fill="#FFFFFF"/><rect x="17.07" y="12.48" width="1" height="2.6" fill="#FFFFFF"/></svg>