<svg width="75" height="75" viewBox="0 0 75 75" xmlns="http://www.w3.org/2000/svg" xmlns:xlink="http://www.w3.org/1999/xlink" id="Product_Icon" overflow="hidden"><defs><linearGradient x1="90.53" y1="90.53" x2="-15.53" y2="-15.53" gradientUnits="userSpaceOnUse" id="PurpleGradient" gradientTransform="matrix(0 1 -1 0 75 0)"><stop offset="0" stop-color="#4D27A8"/><stop offset="1" stop-color="#A166FF"/></linearGradient></defs><rect x="0" y="0" width="75" height="75" id="Purple_Gradient" fill="url(#PurpleGradient)"/><g id="Icon_Test"><path d="M52.5 44.49 45.5 44.49 45.5 42.49 52.5 42.49C54.91 42.49 60.5 41.77 60.5 35.09 60.5 31.09 58.15 28.58 53.5 27.64 53.0556 27.5501 52.7273 27.1726 52.7 26.72 52.47 22.82 50.2 21.43 48.33 21.43 47.0434 21.4425 45.8369 22.0569 45.07 23.09 44.7335 23.5279 44.1057 23.6102 43.6678 23.2737 43.5191 23.1595 43.4055 23.0057 43.34 22.83 42.6936 20.9455 41.6227 19.2348 40.21 17.83 35.929 13.3882 28.8577 13.2578 24.4159 17.5389 22.2918 19.5861 21.0638 22.3906 21 25.34 21.0011 25.7912 21.0279 26.2419 21.08 26.69 21.1459 27.194 20.8232 27.6672 20.33 27.79 18.16 28.32 14.5 30 14.5 35 14.5 35.19 14.5 35.37 14.5 35.55 14.8683 39.5649 18.3003 42.598 22.33 42.47L27.5 42.47 27.5 44.47 22.35 44.47C17.2576 44.5992 12.9473 40.7361 12.52 35.66 12.52 35.44 12.52 35.22 12.52 35 12.3528 30.8846 15.0344 27.1932 19 26.08 19 25.84 19 25.59 19 25.34 19.1604 18.0682 25.1854 12.3032 32.4572 12.4636 35.9081 12.5397 39.1913 13.9676 41.6 16.44 42.8517 17.6726 43.8683 19.1229 44.6 20.72 45.6569 19.8859 46.9636 19.4316 48.31 19.43 51.11 19.43 54.06 21.43 54.61 25.85 59.69 27.1 62.48 30.36 62.48 35.09 62.5 42 57.33 44.49 52.5 44.49Z" fill="#FFFFFF"/><path d="M46.81 56.49 46.5 56.49 46.5 51.26C46.4243 49.6723 45.0887 48.439 43.5 48.49L29.53 48.49C27.9413 48.439 26.6057 49.6723 26.53 51.26L26.53 56.49 26.22 56.49C24.6202 56.6177 23.4208 58.0088 23.53 59.61L23.53 62.49 25.53 62.49 25.53 59.61C25.53 58.97 25.9 58.49 26.22 58.49L46.81 58.49C47.13 58.49 47.5 58.97 47.5 59.61L47.5 62.49 49.5 62.49 49.5 59.61C49.6092 58.0088 48.4098 56.6177 46.81 56.49ZM28.5 51.26C28.5 50.84 28.97 50.49 29.5 50.49L43.47 50.49C44.03 50.49 44.47 50.84 44.47 51.26L44.47 56.49 28.47 56.49Z" fill="#FFFFFF"/><path d="M30.5 30.49C28.2909 30.4963 26.5051 32.2923 26.5114 34.5014 26.5166 36.3167 27.7436 37.901 29.5 38.36L29.5 47.49 31.5 47.49 31.5 38.36C33.6374 37.8014 34.9172 35.6159 34.3586 33.4786 33.8996 31.7222 32.3153 30.4952 30.5 30.49ZM30.5 36.49C29.3954 36.49 28.5 35.5946 28.5 34.49 28.5 33.3854 29.3954 32.49 30.5 32.49 31.6046 32.49 32.5 33.3854 32.5 34.49 32.5 35.5946 31.6046 36.49 30.5 36.49Z" fill="#FFFFFF"/><path d="M36.44 23.49C34.2309 23.5076 32.4544 25.3127 32.472 27.5218 32.4866 29.3446 33.7317 30.9271 35.5 31.37L35.5 47.49 37.5 47.49 37.5 31.34C39.6263 30.7409 40.8644 28.5314 40.2652 26.4051 39.7819 24.6897 38.2221 23.5011 36.44 23.49ZM36.44 29.49C35.3354 29.49 34.44 28.5946 34.44 27.49 34.44 26.3854 35.3354 25.49 36.44 25.49 37.5446 25.49 38.44 26.3854 38.44 27.49 38.44 28.5946 37.5446 29.49 36.44 29.49Z" fill="#FFFFFF"/><path d="M42.5 30.49C40.2909 30.4963 38.5051 32.2923 38.5114 34.5014 38.5166 36.3167 39.7436 37.901 41.5 38.36L41.5 47.49 43.5 47.49 43.5 38.36C45.6374 37.8014 46.9172 35.6159 46.3586 33.4786 45.8996 31.7222 44.3153 30.4952 42.5 30.49ZM42.5 36.49C41.3954 36.49 40.5 35.5946 40.5 34.49 40.5 33.3854 41.3954 32.49 42.5 32.49 43.6046 32.49 44.5 33.3854 44.5 34.49 44.5 35.5946 43.6046 36.49 42.5 36.49Z" fill="#FFFFFF"/></g></svg>