<svg width="35" height="35" viewBox="0 0 35 35" xmlns="http://www.w3.org/2000/svg" xmlns:xlink="http://www.w3.org/1999/xlink" id="Layer_1" overflow="hidden"><rect x="0" y="0" width="35" height="35" fill="#147EBA"/><path d="M27.4 18.34 23.68 13.74 27.4 9.13 11.05 9.13 11.05 7.83C11.6435 7.63625 12.0464 7.08433 12.05 6.46 11.9831 5.6509 11.273 5.04924 10.4639 5.11614 9.74763 5.17536 9.17922 5.74377 9.12 6.46 9.12049 7.08536 9.52455 7.63892 10.12 7.83L10.12 29 7.6 29 7.6 30 13.51 30 13.51 29 11.05 29 11.05 18.34ZM10.55 6C10.8095 5.99453 11.0243 6.20048 11.0298 6.46 11.0353 6.71952 10.8293 6.93433 10.5698 6.93979 10.3103 6.94526 10.0955 6.73931 10.09 6.47979 10.0899 6.4732 10.0899 6.4666 10.09 6.46 10.0953 6.20818 10.2982 6.0053 10.55 6ZM25.3 10.13 22.39 13.74 25.3 17.34 11.05 17.34 11.05 10.13Z" fill="#FFFFFF"/></svg>