<svg width="75" height="75" viewBox="0 0 75 75" xmlns="http://www.w3.org/2000/svg" xmlns:xlink="http://www.w3.org/1999/xlink" id="Product_Icon" overflow="hidden"><rect x="0" y="0" width="75" height="75" id="Purple_Light_BG" fill="#693CC5"/><g id="Product_Icon-2"><path d="M37.5 24.26C34.8766 24.26 32.75 22.1333 32.75 19.51 32.75 16.8866 34.8767 14.76 37.5 14.76 40.1234 14.76 42.25 16.8867 42.25 19.51 42.25 19.5133 42.25 19.5167 42.25 19.52 42.2445 22.1394 40.1195 24.26 37.5 24.26ZM37.5 16.77C35.9812 16.77 34.75 18.0012 34.75 19.52 34.75 21.0388 35.9812 22.27 37.5 22.27 39.0188 22.27 40.25 21.0388 40.25 19.52 40.25 18.0012 39.0188 16.77 37.5 16.77Z" fill="#FFFFFF"/><path d="M55.48 42.25C52.8566 42.25 50.73 40.1234 50.73 37.5 50.73 34.8766 52.8566 32.75 55.48 32.75 58.1034 32.75 60.23 34.8766 60.23 37.5 60.23 40.1234 58.1034 42.25 55.48 42.25ZM55.48 34.75C53.9612 34.75 52.73 35.9812 52.73 37.5 52.73 39.0188 53.9612 40.25 55.48 40.25 56.9988 40.25 58.23 39.0188 58.23 37.5 58.23 35.9812 56.9988 34.75 55.48 34.75Z" fill="#FFFFFF"/><path d="M37.5 60.23C34.8766 60.23 32.75 58.1034 32.75 55.48 32.75 52.8566 34.8766 50.73 37.5 50.73 40.1234 50.73 42.25 52.8566 42.25 55.48 42.25 58.1034 40.1234 60.23 37.5 60.23ZM37.5 52.74C35.9812 52.74 34.75 53.9712 34.75 55.49 34.75 57.0088 35.9813 58.24 37.5 58.24 39.0188 58.24 40.25 57.0088 40.25 55.49 40.25 55.4867 40.25 55.4833 40.25 55.48 40.2445 53.9651 39.0149 52.74 37.5 52.74Z" fill="#FFFFFF"/><path d="M19.52 42.25C16.8967 42.2555 14.7655 40.1334 14.76 37.51 14.7545 34.8867 16.8767 32.7555 19.5 32.75 22.1233 32.7445 24.2545 34.8667 24.26 37.49 24.26 37.4933 24.26 37.4967 24.26 37.5 24.26 40.1195 22.1394 42.2445 19.52 42.25ZM19.52 34.75C18.0012 34.7445 16.7655 35.9712 16.76 37.49 16.7545 39.0088 17.9812 40.2444 19.5 40.25 21.0188 40.2555 22.2545 39.0288 22.26 37.51 22.26 37.5067 22.26 37.5033 22.26 37.5 22.26 35.9851 21.0349 34.7555 19.52 34.75Z" fill="#FFFFFF"/><path d="M37.5 61.73C24.1181 61.73 13.27 50.8819 13.27 37.5 13.27 24.1181 24.1181 13.27 37.5 13.27 50.8819 13.27 61.73 24.1181 61.73 37.5 61.7135 50.875 50.875 61.7135 37.5 61.73ZM37.5 15.27C25.2227 15.27 15.27 25.2227 15.27 37.5 15.27 49.7773 25.2227 59.73 37.5 59.73 49.7773 59.73 59.73 49.7773 59.73 37.5 59.7135 25.2296 49.7704 15.2865 37.5 15.27Z" fill="#FFFFFF"/><path d="M37.5 44.43C33.6727 44.43 30.57 41.3273 30.57 37.5 30.57 33.6727 33.6727 30.57 37.5 30.57 41.3273 30.57 44.43 33.6727 44.43 37.5 44.4245 41.3251 41.3251 44.4245 37.5 44.43ZM37.5 32.57C34.7772 32.57 32.57 34.7772 32.57 37.5 32.57 40.2228 34.7772 42.43 37.5 42.43 40.2228 42.43 42.43 40.2228 42.43 37.5 42.43 34.7772 40.2228 32.57 37.5 32.57Z" fill="#FFFFFF"/><rect x="23.26" y="36.5" width="8.3" height="2" fill="#FFFFFF"/><rect x="43.43" y="36.5" width="8.3" height="2" fill="#FFFFFF"/><rect x="36.5" y="43.43" width="2" height="8.3" fill="#FFFFFF"/><rect x="36.5" y="23.26" width="2" height="8.3" fill="#FFFFFF"/></g></svg>