<svg width="35" height="35" viewBox="0 0 35 35" xmlns="http://www.w3.org/2000/svg" xmlns:xlink="http://www.w3.org/1999/xlink" id="Layer_1" overflow="hidden"><rect x="0" y="0" width="35" height="35" fill="#248814"/><path d="M19.85 17.69 19.11 17.69 19.11 17C19.0291 15.8153 18.0031 14.9206 16.8185 15.0015 15.7465 15.0748 14.8932 15.9281 14.82 17L14.82 17.67 14.08 17.67C13.8039 17.67 13.58 17.8939 13.58 18.17L13.58 22C13.58 22.2761 13.8039 22.5 14.08 22.5L19.85 22.5C20.1261 22.5 20.35 22.2761 20.35 22L20.35 18.19C20.35 17.9139 20.1261 17.69 19.85 17.69ZM15.85 17.02C15.9092 16.3876 16.4698 15.923 17.1021 15.9821 17.6526 16.0336 18.0885 16.4695 18.14 17.02L18.14 17.69 15.82 17.69ZM19.38 21.45 14.58 21.45 14.58 18.69 19.35 18.69Z" fill="#FFFFFF"/><path d="M26.42 16.09C26.3664 14.5932 25.4086 13.2792 24 12.77 23.0408 12.4919 22.0061 12.7093 21.24 13.35 20.8509 12.4751 20.3053 11.6787 19.63 11 17.6531 8.94898 14.6062 8.34997 12 9.5 9.56463 10.6585 7.99286 13.0936 7.94 15.79 7.94 15.94 7.94 16.08 7.94 16.22 5.82031 16.8181 4.39395 18.8001 4.5 21 4.5 21.13 4.5 21.27 4.5 21.4 4.71518 24.0543 6.94718 26.0897 9.61 26.06L25.86 26.06C25.86 26.06 30.5 25.66 30.5 21 30.539 18.5804 28.8058 16.4947 26.42 16.09ZM25.83 25.09 9.62 25.09C7.48136 25.1234 5.68359 23.4918 5.51 21.36 5.51 21.25 5.51 21.14 5.51 21.03 5.40445 19.1373 6.71002 17.4562 8.57 17.09 8.81191 17.0227 8.96887 16.7894 8.94 16.54 8.9248 16.2969 8.9248 16.0531 8.94 15.81 9.00289 13.518 10.3316 11.4499 12.39 10.44 13.1464 10.1055 13.963 9.92857 14.79 9.92 16.37 9.9557 17.872 10.6133 18.97 11.75 19.7123 12.5117 20.2729 13.4312 20.61 14.44 20.704 14.6997 20.9907 14.8339 21.2503 14.74 21.3418 14.7068 21.4216 14.6478 21.48 14.57 21.9831 13.8449 22.889 13.5162 23.74 13.75 24.8358 14.1907 25.5391 15.2696 25.5 16.45 25.4578 16.7146 25.636 16.9641 25.9 17.01 28.1368 17.2326 29.7696 19.2262 29.547 21.463 29.3551 23.3921 27.8291 24.918 25.9 25.11Z" fill="#FFFFFF"/></svg>