<svg viewBox="0 0 75 75" xmlns="http://www.w3.org/2000/svg" xmlns:xlink="http://www.w3.org/1999/xlink" overflow="hidden"><defs></defs><g id="Reference"><rect x="0" y="0" width="75" height="75" id="Purple_Light_BG" fill="#693CC5"/><path d="M52.89 35.57 48.3 35.57 48.3 30.94 46.3 30.94 46.3 35.57 29.59 35.57 29.59 30.94 27.59 30.94 27.59 35.56 22.9 35.56C22.3477 35.56 21.9 36.0077 21.9 36.56L21.9 60C21.9 60.5523 22.3477 61 22.9 61L52.9 61C53.4523 61 53.9 60.5523 53.9 60L53.9 36.57C53.8989 36.3077 53.7947 36.0563 53.61 35.87 53.4205 35.6767 53.1607 35.5684 52.89 35.57ZM51.88 59 23.88 59 23.88 37.56 51.88 37.56Z" fill="#FFFFFF"/><path d="M36.89 48.12 36.89 53.68 38.89 53.68 38.89 48.12C41.1044 47.5731 42.4562 45.3346 41.9093 43.1202 41.7289 42.3896 41.3522 41.7221 40.82 41.19 40.0455 40.418 38.9935 39.9893 37.9 40L37.9 40C35.6136 40.016 33.7731 41.8824 33.789 44.1688 33.8022 46.0482 35.0796 47.6829 36.9 48.15ZM36.38 42.6C36.7831 42.2064 37.3268 41.9904 37.89 42L37.89 42C38.4599 42.0012 39.0063 42.2277 39.41 42.63 39.7907 43.0284 40.0022 43.5589 40 44.11L40 44.11C40.0003 44.6783 39.7777 45.2241 39.38 45.63 38.9784 46.0281 38.4355 46.251 37.87 46.25L37.87 46.25C36.6881 46.2465 35.7329 45.2855 35.7364 44.1036 35.7381 43.5398 35.9622 42.9995 36.36 42.6Z" fill="#FFFFFF"/><path d="M29.59 24.86C29.478 20.0957 33.2364 16.1363 38 16 42.59 16 46.32 20 46.3 25L46.3 25.32 48.3 25.32 48.3 25C48.4909 19.1191 43.8808 14.1956 38 14 32.1358 14.1366 27.4839 18.9852 27.59 24.85L27.59 25.27 29.59 25.27Z" fill="#FFFFFF"/><path d="M58.32 27.36 53.53 22.75 52.14 24.19 55.22 27.19 19.76 27.19 22.76 24.19 21.4 22.73 16.67 27.4C16.2779 27.7889 16.2753 28.4221 16.6642 28.8142 16.6661 28.8161 16.6681 28.8181 16.67 28.82L21.4 33.5 22.81 32.07 19.81 29.15 55.16 29.15 52.24 32.15 53.66 33.56 58.34 28.83C58.5297 28.6388 58.6342 28.3793 58.63 28.11 58.6373 27.8274 58.5247 27.555 58.32 27.36Z" fill="#FFFFFF"/></g></svg>